<svg width="21" height="22" viewBox="0 0 21 22" fill="none" xmlns="http://www.w3.org/2000/svg">
<path fill-rule="evenodd" clip-rule="evenodd" d="M9.492 0.852318C9.906 0.852318 10.242 1.18832 10.242 1.60232C10.242 2.01632 9.906 2.35232 9.492 2.35232H5.753C3.169 2.35232 1.5 4.12232 1.5 6.86132V15.1753C1.5 17.9143 3.169 19.6843 5.753 19.6843H14.577C17.161 19.6843 18.831 17.9143 18.831 15.1753V11.1473C18.831 10.7333 19.167 10.3973 19.581 10.3973C19.995 10.3973 20.331 10.7333 20.331 11.1473V15.1753C20.331 18.7693 18.018 21.1843 14.577 21.1843H5.753C2.312 21.1843 0 18.7693 0 15.1753V6.86132C0 3.26732 2.312 0.852318 5.753 0.852318H9.492ZM18.2016 1.73092L19.4186 2.94792C20.0116 3.53992 20.3376 4.32692 20.3366 5.16492C20.3366 6.00292 20.0106 6.78892 19.4186 7.37992L11.9096 14.8889C11.3586 15.4399 10.6246 15.7439 9.8446 15.7439H6.0986C5.8966 15.7439 5.7026 15.6619 5.5616 15.5169C5.4206 15.3729 5.3436 15.1779 5.3486 14.9749L5.4426 11.1959C5.4616 10.4439 5.7646 9.73692 6.2966 9.20392L13.7706 1.73092C14.9926 0.510918 16.9796 0.510918 18.2016 1.73092ZM13.155 4.46692L7.3576 10.2649C7.0986 10.5239 6.9516 10.8679 6.9426 11.2329L6.8676 14.2439H9.8446C10.2246 14.2439 10.5806 14.0969 10.8496 13.8279L16.682 7.99392L13.155 4.46692ZM14.8306 2.79192L14.215 3.40592L17.742 6.93392L18.3586 6.31892C18.6666 6.01092 18.8366 5.60092 18.8366 5.16492C18.8366 4.72792 18.6666 4.31692 18.3586 4.00892L17.1416 2.79192C16.5046 2.15692 15.4686 2.15692 14.8306 2.79192Z" fill="black"/>
</svg>
