<svg width="24" height="24" viewBox="0 0 24 24" fill="none" xmlns="http://www.w3.org/2000/svg">
<path d="M6.22199 4.60103C6.66457 4.3054 7.13121 4.0475 7.61699 3.83003C8.98899 3.21503 9.67499 2.90803 10.587 3.50003C11.5 4.09003 11.5 5.06003 11.5 7.00003V8.50003C11.5 10.386 11.5 11.328 12.086 11.914C12.672 12.5 13.614 12.5 15.5 12.5H17C18.94 12.5 19.91 12.5 20.5 13.412C21.092 14.325 20.785 15.011 20.17 16.382C19.2909 18.3459 17.7711 19.9532 15.8594 20.9406C13.9476 21.928 11.7573 22.237 9.64699 21.817C7.80425 21.4505 6.11158 20.5457 4.78302 19.2172C3.45447 17.8886 2.54969 16.196 2.18309 14.3532C1.81649 12.5105 2.00453 10.6004 2.72345 8.86456C3.44236 7.12869 4.65986 5.64498 6.22199 4.60103Z" stroke="#A3AED0" stroke-width="1.5"/>
<path d="M21.446 7.06901C21.0424 6.04756 20.4334 5.11981 19.6568 4.34319C18.8802 3.56658 17.9525 2.95762 16.931 2.55401C15.389 1.94701 14 3.34401 14 5.00001V9.00001C14 9.26523 14.1054 9.51958 14.2929 9.70712C14.4804 9.89465 14.7348 10 15 10H19C20.657 10 22.053 8.61001 21.446 7.06901Z" stroke="#A3AED0" stroke-width="1.5"/>
</svg>
