<svg width="25" height="24" viewBox="0 0 25 24" fill="none" xmlns="http://www.w3.org/2000/svg">
<path d="M12.824 14.5396C16.2552 14.5396 19.185 15.0836 19.185 17.2604C19.185 19.4362 16.274 20 12.824 20C9.39285 20 6.46309 19.456 6.46309 17.2802C6.46309 15.1034 9.37404 14.5396 12.824 14.5396ZM18.3101 13.2289C19.6218 13.2046 21.0321 13.3847 21.5532 13.5126C22.6573 13.7296 23.3834 14.1727 23.6843 14.8166C23.9386 15.3453 23.9386 15.9586 23.6843 16.4864C23.224 17.4851 21.7404 17.8058 21.1637 17.8886C21.0446 17.9066 20.9488 17.8031 20.9614 17.6833C21.2559 14.9157 18.9127 13.6035 18.3065 13.3018C18.2805 13.2883 18.2752 13.2676 18.2778 13.255C18.2796 13.246 18.2904 13.2316 18.3101 13.2289ZM7.4406 13.2292C7.4603 13.2319 7.47015 13.2464 7.47194 13.2545C7.47462 13.268 7.46925 13.2878 7.44418 13.3022C6.8371 13.6039 4.49383 14.9161 4.78842 17.6827C4.80095 17.8034 4.70604 17.9061 4.58695 17.889C4.01031 17.8061 2.52663 17.4855 2.06639 16.4867C1.8112 15.9581 1.8112 15.3457 2.06639 14.817C2.36725 14.1731 3.09252 13.73 4.19656 13.512C4.71858 13.385 6.12794 13.2049 7.4406 13.2292ZM12.824 4C15.1601 4 17.0333 5.88227 17.0333 8.23285C17.0333 10.5825 15.1601 12.4666 12.824 12.4666C10.4879 12.4666 8.61474 10.5825 8.61474 8.23285C8.61474 5.88227 10.4879 4 12.824 4ZM18.5384 4.7059C20.7948 4.7059 22.5668 6.84123 21.9633 9.21974C21.5559 10.821 20.0812 11.8846 18.4381 11.8414C18.2734 11.8369 18.1113 11.8216 17.9546 11.7946C17.8409 11.7748 17.7836 11.646 17.848 11.5505C18.4748 10.6229 18.8321 9.50703 18.8321 8.30922C18.8321 7.05918 18.4417 5.8938 17.7639 4.93825C17.7424 4.90853 17.7263 4.8626 17.7478 4.82838C17.7657 4.80046 17.7988 4.78605 17.8301 4.77884C18.0585 4.73201 18.2931 4.7059 18.5384 4.7059ZM7.21093 4.70581C7.45627 4.70581 7.69086 4.73192 7.92009 4.77875C7.95053 4.78596 7.98456 4.80127 8.00246 4.82829C8.02306 4.86251 8.00784 4.90844 7.98635 4.93816C7.30853 5.89371 6.91813 7.05909 6.91813 8.30913C6.91813 9.50694 7.2754 10.6228 7.90218 11.5504C7.96665 11.6459 7.90934 11.7747 7.79563 11.7945C7.63804 11.8224 7.47686 11.8368 7.31211 11.8413C5.66904 11.8845 4.19432 10.8209 3.78691 9.21965C3.18251 6.84114 4.95451 4.70581 7.21093 4.70581Z" fill="#616161"/>
</svg>
