<svg width="89" height="88" viewBox="0 0 89 88" fill="none" xmlns="http://www.w3.org/2000/svg">
<path d="M33.5 80.6668H55.5C73.8334 80.6668 81.1667 73.3335 81.1667 55.0002V33.0002C81.1667 14.6668 73.8334 7.3335 55.5 7.3335H33.5C15.1667 7.3335 7.83337 14.6668 7.83337 33.0002V55.0002C7.83337 73.3335 15.1667 80.6668 33.5 80.6668Z" stroke="#0066FF" stroke-width="3" stroke-linecap="round" stroke-linejoin="round"/>
<path d="M26.1666 32.0835C29.8333 28.4168 35.81 28.4168 39.5133 32.0835" stroke="#0066FF" stroke-width="3" stroke-miterlimit="10" stroke-linecap="round" stroke-linejoin="round"/>
<path d="M49.4867 32.0835C53.1534 28.4168 59.13 28.4168 62.8334 32.0835" stroke="#0066FF" stroke-width="3" stroke-miterlimit="10" stroke-linecap="round" stroke-linejoin="round"/>
<path d="M31.3 64.9001H57.7C59.5333 64.9001 61 63.4334 61 61.6001C61 52.4701 53.63 45.1001 44.5 45.1001C35.37 45.1001 28 52.4701 28 61.6001C28 63.4334 29.4667 64.9001 31.3 64.9001Z" stroke="#0066FF" stroke-width="3" stroke-miterlimit="10" stroke-linecap="round" stroke-linejoin="round"/>
</svg>
