<svg width="24" height="24" viewBox="0 0 24 24" fill="none" xmlns="http://www.w3.org/2000/svg">
<path fill-rule="evenodd" clip-rule="evenodd" d="M15.488 4.42993C15.5628 4.49406 15.6243 4.5723 15.6688 4.66019C15.7134 4.74808 15.7402 4.84389 15.7478 4.94215C15.7553 5.0404 15.7434 5.13918 15.7127 5.23283C15.682 5.32647 15.6332 5.41316 15.569 5.48793L9.988 11.9999L15.569 18.5119C15.6909 18.6638 15.7489 18.857 15.7309 19.0509C15.7129 19.2447 15.6202 19.424 15.4724 19.5507C15.3246 19.6775 15.1333 19.7418 14.939 19.7301C14.7447 19.7183 14.5625 19.6315 14.431 19.4879L8.431 12.4879C8.31454 12.352 8.25053 12.1789 8.25053 11.9999C8.25053 11.8209 8.31454 11.6479 8.431 11.5119L14.431 4.51193C14.5605 4.36112 14.7445 4.26787 14.9427 4.25268C15.1409 4.23749 15.3371 4.30161 15.488 4.43093V4.42993Z" fill="#BDDCD6"/>
</svg>
