<svg width="41" height="40" viewBox="0 0 41 40" fill="none" xmlns="http://www.w3.org/2000/svg">
<circle cx="20.5" cy="20" r="18" fill="#0066FF" stroke="#FEFEFE" stroke-width="4"/>
<rect width="18" height="18" transform="translate(11.5 11)" fill="#0066FF"/>
<path d="M21.445 13.6999L15.2875 20.2174C15.055 20.4649 14.83 20.9524 14.785 21.2899L14.5075 23.7199C14.41 24.5974 15.04 25.1974 15.91 25.0474L18.325 24.6349C18.6625 24.5749 19.135 24.3274 19.3675 24.0724L25.525 17.5549C26.59 16.4299 27.07 15.1474 25.4125 13.5799C23.7625 12.0274 22.51 12.5749 21.445 13.6999Z" stroke="#FEFEFE" stroke-width="1.5" stroke-miterlimit="10" stroke-linecap="round" stroke-linejoin="round"/>
<path d="M20.4175 14.7876C20.74 16.8576 22.42 18.4401 24.505 18.6501" stroke="#FEFEFE" stroke-width="1.5" stroke-miterlimit="10" stroke-linecap="round" stroke-linejoin="round"/>
<path d="M13.75 27.5H27.25" stroke="#FEFEFE" stroke-width="1.5" stroke-miterlimit="10" stroke-linecap="round" stroke-linejoin="round"/>
</svg>
