<svg width="25" height="24" viewBox="0 0 25 24" fill="none" xmlns="http://www.w3.org/2000/svg">
<path fill-rule="evenodd" clip-rule="evenodd" d="M21.4317 7.62337L20.8092 6.54328C20.2827 5.62936 19.1157 5.31408 18.2005 5.83847C17.7649 6.0951 17.2451 6.16791 16.7557 6.04084C16.2663 5.91378 15.8476 5.59727 15.5918 5.16113C15.4273 4.88391 15.3389 4.56815 15.3355 4.2458C15.3504 3.72898 15.1554 3.22816 14.795 2.85743C14.4346 2.48669 13.9395 2.27762 13.4225 2.27783H12.1685C11.662 2.27783 11.1763 2.47967 10.819 2.8387C10.4617 3.19773 10.2622 3.68435 10.2646 4.19088C10.2496 5.23668 9.39748 6.07657 8.35157 6.07646C8.02921 6.07311 7.71346 5.9847 7.43623 5.82017C6.52106 5.29577 5.35411 5.61105 4.82754 6.52497L4.15935 7.62337C3.63341 8.53615 3.9444 9.70236 4.855 10.2321C5.4469 10.5738 5.81153 11.2053 5.81153 11.8888C5.81153 12.5723 5.4469 13.2038 4.855 13.5456C3.94556 14.0717 3.63423 15.2351 4.15935 16.1451L4.79093 17.2344C5.03765 17.6795 5.4516 18.0081 5.94119 18.1472C6.43078 18.2863 6.95564 18.2247 7.39962 17.9758C7.83608 17.7211 8.35619 17.6513 8.84434 17.782C9.33249 17.9126 9.74824 18.2328 9.99916 18.6714C10.1637 18.9486 10.2521 19.2644 10.2555 19.5868C10.2555 20.6433 11.112 21.4998 12.1685 21.4998H13.4225C14.4755 21.4998 15.3305 20.6489 15.3355 19.5959C15.3331 19.0878 15.5339 18.5998 15.8932 18.2405C16.2525 17.8812 16.7405 17.6804 17.2486 17.6829C17.5702 17.6915 17.8846 17.7795 18.1639 17.9392C19.0767 18.4651 20.2429 18.1541 20.7726 17.2435L21.4317 16.1451C21.6868 15.7073 21.7568 15.1858 21.6262 14.6961C21.4956 14.2065 21.1752 13.7891 20.736 13.5364C20.2968 13.2837 19.9764 12.8663 19.8458 12.3767C19.7152 11.8871 19.7853 11.3656 20.0404 10.9277C20.2062 10.6381 20.4464 10.398 20.736 10.2321C21.6411 9.70265 21.9514 8.54325 21.4317 7.63252V7.62337Z" stroke="#616161" stroke-width="1.5" stroke-linecap="round" stroke-linejoin="round"/>
<path d="M12.8001 14.5248C14.256 14.5248 15.4363 13.3445 15.4363 11.8886C15.4363 10.4327 14.256 9.25244 12.8001 9.25244C11.3442 9.25244 10.1639 10.4327 10.1639 11.8886C10.1639 13.3445 11.3442 14.5248 12.8001 14.5248Z" stroke="#616161" stroke-width="1.5" stroke-linecap="round" stroke-linejoin="round"/>
</svg>
